<?xml version="1.0" standalone="no"?>
<!DOCTYPE svg PUBLIC "-//W3C//DTD SVG 20010904//EN"
 "http://www.w3.org/TR/2001/REC-SVG-20010904/DTD/svg10.dtd">
<svg version="1.0" xmlns="http://www.w3.org/2000/svg"
 width="636.000000pt" height="636.000000pt" viewBox="0 0 636.000000 636.000000"
 preserveAspectRatio="xMidYMid meet">
<metadata>
Created by potrace 1.14, written by Peter Selinger 2001-2017
</metadata>
<g transform="translate(0.000000,636.000000) scale(0.100000,-0.100000)"
fill="#000000" stroke="none">
<path d="M2935 6354 c-16 -2 -66 -9 -110 -15 -540 -71 -1049 -298 -1482 -661
-169 -142 -304 -281 -422 -438 -243 -321 -389 -596 -506 -950 -34 -104 -66
-182 -78 -192 -16 -15 -40 -18 -167 -18 l-148 0 -7 -146 c-4 -80 -6 -208 -3
-284 5 -162 -22 -118 236 -394 98 -104 182 -198 189 -210 8 -14 12 -79 13
-200 l0 -180 -83 -83 -83 -83 -137 0 -137 0 0 -278 c0 -203 3 -281 12 -290 8
-8 67 -12 200 -12 174 0 189 -1 208 -20 11 -11 52 -83 90 -161 175 -348 355
-603 600 -850 225 -227 371 -340 625 -484 202 -115 374 -189 623 -270 180 -58
230 -70 402 -97 125 -19 184 -23 430 -23 l285 0 191 37 c343 68 528 126 783
249 325 156 506 284 805 570 114 109 143 142 304 343 109 136 268 397 358 588
23 48 47 94 54 103 10 12 47 15 189 17 l176 3 3 316 2 315 -92 101 c-51 55
-152 164 -224 242 -83 88 -133 151 -137 168 -6 30 5 43 310 353 l142 145 6
125 c3 69 2 184 -2 255 l-8 130 -128 5 c-112 5 -131 8 -143 25 -8 10 -14 25
-14 32 0 7 -27 96 -60 197 -211 645 -705 1257 -1284 1591 -401 230 -729 351
-1116 410 -101 15 -593 30 -665 19z m-312 -141 c3 -5 8 -33 12 -64 l7 -57 -37
-12 c-20 -7 -33 -15 -30 -18 4 -4 10 -6 13 -5 8 2 52 -38 52 -47 0 -3 -17 -4
-37 -2 -29 2 -34 1 -23 -7 9 -7 10 -11 3 -11 -21 0 -24 18 -6 30 15 9 15 10
-6 4 -17 -4 -21 -3 -16 6 5 9 4 11 -4 6 -6 -4 -8 -13 -4 -19 3 -7 -4 -3 -17 8
l-23 20 12 -25 12 -25 -19 21 c-10 12 -27 24 -38 26 -15 2 -22 18 -32 67 -7
35 -11 65 -9 67 3 3 160 41 179 43 4 1 9 -2 11 -6z m-213 -95 c24 -88 27 -85
-95 -127 -60 -21 -144 -52 -184 -69 -41 -17 -76 -30 -76 -29 -8 10 -55 121
-53 122 16 14 359 143 385 144 7 1 17 -18 23 -41z m-408 -188 l27 -54 -91 -48
c-51 -27 -94 -45 -97 -41 -26 35 -61 94 -61 102 0 13 161 102 180 98 8 -1 27
-27 42 -57z m1455 19 c54 -6 132 -18 173 -28 l75 -17 -2 -43 c-1 -24 -4 -46
-7 -48 -3 -3 -45 3 -93 13 -72 15 -137 18 -358 18 -148 1 -311 -3 -361 -7
l-91 -8 -6 43 c-3 23 -4 44 -3 46 4 3 172 29 226 35 81 9 356 6 447 -4z m783
-14 c34 -18 34 -16 19 -48 -10 -22 -14 -24 -45 -14 -38 11 -39 15 -22 52 13
30 11 29 48 10z m180 -210 c276 -139 454 -269 698 -509 78 -77 142 -142 142
-145 0 -3 -18 -19 -40 -34 l-40 -28 -97 98 c-275 277 -622 509 -946 632 -25
10 -26 12 -13 43 7 18 16 41 19 50 6 17 9 17 58 -2 28 -12 127 -59 219 -105z
m-2697 56 l35 -60 -51 -33 c-29 -18 -92 -61 -141 -97 l-89 -65 -44 49 -43 49
31 26 c34 27 261 190 264 190 2 0 19 -27 38 -59z m2837 0 c21 -17 23 -22 12
-45 -13 -30 -28 -32 -60 -10 -21 14 -21 17 -7 45 18 34 22 35 55 10z m-1340
-157 c0 -76 -2 -85 -17 -82 -15 3 -18 16 -21 86 -3 77 -2 82 18 82 19 0 20 -6
20 -86z m188 -10 c16 -5 22 -14 22 -35 0 -28 -2 -29 -45 -29 -45 0 -45 0 -45
35 0 30 3 35 23 35 12 0 32 -3 45 -6z m600 -27 c29 -27 30 -82 0 -114 -32 -34
-79 -31 -112 8 -30 35 -33 65 -10 97 31 45 78 49 122 9z m-425 -7 c5 -4 6 -17
2 -29 -4 -15 -15 -21 -35 -21 -47 0 -57 8 -52 41 4 29 6 30 41 24 20 -4 40
-10 44 -15z m1286 -3 c26 -21 27 -25 13 -45 -18 -28 -36 -28 -61 -1 -19 21
-19 23 -3 45 9 13 19 24 21 24 2 0 15 -10 30 -23z m-3574 -211 l-90 -85 -42
47 -42 47 27 28 c15 15 52 53 82 85 l55 58 50 -48 49 -48 -89 -84z m3078 84
c39 -44 38 -101 -3 -142 -28 -27 -35 -30 -72 -24 -35 6 -98 36 -75 36 5 0 1 7
-7 16 -30 30 -11 118 31 144 32 19 95 4 126 -30z m-2539 12 c15 -17 156 -361
156 -382 0 -23 24 -18 63 13 175 143 485 280 752 336 135 27 358 44 482 36
l101 -7 -5 -36 c-2 -21 -6 -43 -9 -49 -2 -10 -47 -13 -176 -13 -95 0 -207 -5
-248 -10 -277 -35 -622 -171 -827 -327 -69 -52 -71 -55 -66 -89 6 -34 2 -38
-147 -182 -177 -170 -204 -192 -233 -186 -52 9 -359 169 -411 213 -18 15 -18
29 -13 261 3 135 10 257 16 272 11 30 22 34 326 122 171 49 214 54 239 28z
m1795 -43 c41 -11 76 -21 79 -23 6 -7 -9 -85 -18 -91 -4 -3 -54 6 -111 18
l-104 24 -3 37 c-6 75 -4 75 157 35z m1540 -83 l22 -24 -24 -26 -24 -25 -28
29 c-28 29 -28 30 -10 50 24 26 37 25 64 -4z m-1251 -111 c-3 -3 -9 2 -12 12
-6 14 -5 15 5 6 7 -7 10 -15 7 -18z m1381 -29 c22 -23 22 -25 5 -51 l-17 -26
-31 30 c-29 30 -29 31 -11 51 23 25 27 25 54 -4z m-1939 4 c33 -11 20 -13 -67
-10 l-73 2 0 -30 c0 -17 -3 -37 -6 -46 -12 -31 -24 -16 -24 30 l0 45 -100 -3
c-55 -2 -100 0 -100 4 0 4 12 9 28 11 49 7 316 5 342 -3z m547 -17 c-2 -24 5
-30 58 -56 90 -43 206 -117 200 -128 -4 -5 -29 5 -58 22 -29 16 -89 49 -134
71 -69 35 -82 46 -85 70 -3 15 0 32 6 38 14 14 15 13 13 -17z m-367 -8 c90
-21 131 -35 126 -44 -6 -9 -216 41 -216 51 0 11 16 10 90 -7z m-757 -72 c9
-31 16 -57 14 -58 -1 0 -55 -18 -120 -39 -65 -20 -169 -64 -232 -96 l-114 -58
-22 44 -21 44 -56 -40 c-32 -22 -86 -63 -122 -91 l-65 -51 60 57 c76 72 208
161 328 220 94 47 289 123 318 124 11 1 21 -16 32 -56z m1567 -18 c-12 -19
-26 -33 -31 -29 -5 3 3 23 18 44 34 47 44 35 13 -15z m-404 -76 c51 -27 95
-53 98 -57 2 -4 -33 -72 -78 -152 -45 -80 -98 -175 -118 -212 l-37 -67 62 -37
c95 -58 130 -86 116 -95 -7 -4 -18 -5 -26 -2 -8 3 -13 2 -12 -3 4 -26 -2 -64
-10 -59 -5 3 -12 1 -15 -4 -3 -5 10 -21 30 -36 60 -46 30 -39 -39 10 -80 56
-245 135 -352 169 -91 29 -237 56 -301 56 l-44 0 0 -84 0 -85 52 -3 c41 -2 54
-7 56 -20 3 -15 -5 -18 -52 -18 l-56 0 0 -100 0 -100 89 0 c98 0 121 -5 121
-26 0 -11 -22 -14 -105 -14 l-105 0 0 -72 c0 -90 -13 -118 -29 -62 -6 21 -11
60 -11 87 l0 47 -94 0 c-86 0 -120 9 -102 27 3 3 48 8 101 11 l95 5 0 98 0 98
-32 3 c-21 2 -33 8 -33 18 0 10 12 16 33 18 l32 3 0 85 0 84 -52 0 c-67 0
-194 -22 -289 -50 -165 -49 -359 -162 -506 -294 -59 -53 -73 -58 -43 -17 l21
30 -36 36 -35 37 58 57 c109 107 347 244 499 287 11 3 3 35 -32 131 -2 8 -30
1 -89 -22 l-84 -33 -21 51 c-12 27 -20 51 -19 52 2 2 35 15 73 30 39 15 84 33
100 41 49 21 174 52 262 65 83 11 386 10 398 -3 4 -3 4 -31 0 -61 l-7 -54
-171 0 c-149 0 -301 -14 -316 -29 -3 -2 4 -32 15 -67 19 -59 22 -62 50 -59 16
1 104 5 197 8 198 7 298 -7 476 -67 63 -21 118 -36 122 -33 4 2 35 55 70 117
34 61 81 147 105 189 24 42 44 81 44 85 0 4 -31 25 -69 47 -45 25 -68 43 -64
52 3 8 7 14 10 14 3 0 48 -23 99 -51z m597 19 c66 -46 238 -191 251 -211 9
-15 16 -75 20 -182 l6 -160 -47 -75 c-75 -117 -106 -159 -126 -166 -11 -3 -58
-14 -105 -25 -48 -10 -113 -25 -144 -33 l-57 -14 -120 67 c-66 36 -129 73
-138 81 -10 9 -39 87 -67 180 l-50 164 60 114 c63 121 116 190 184 237 36 25
54 29 138 35 161 11 162 11 195 -12z m602 -103 c202 -242 354 -506 434 -754
l28 -86 -62 -5 c-33 -3 -73 -13 -87 -22 -31 -20 -31 -20 -51 47 -64 214 -204
466 -383 692 -41 51 -74 95 -74 97 0 8 115 116 122 113 3 -1 36 -38 73 -82z
m-4098 -23 l42 -37 -70 -100 c-75 -106 -209 -370 -274 -537 -20 -54 -39 -98
-42 -98 -3 0 -2 7 1 16 5 12 2 15 -9 10 -9 -3 -13 -2 -10 4 3 6 -1 10 -10 10
-10 0 -14 5 -10 13 4 6 -1 3 -9 -7 -12 -15 -16 -16 -17 -5 0 10 -2 10 -6 1 -2
-6 -10 -9 -15 -6 -6 4 -8 2 -5 -3 4 -6 0 -16 -8 -23 -19 -15 -19 -17 4 55 28
86 102 268 146 355 78 156 225 391 243 390 4 -1 26 -18 49 -38z m4618 -58 c18
-7 45 -55 45 -79 0 -27 -55 -75 -86 -75 -39 0 -74 36 -74 75 0 63 56 101 115
79z m120 -220 c17 -7 45 -54 45 -78 0 -8 -12 -28 -26 -45 -32 -38 -76 -42
-111 -9 -62 59 10 163 92 132z m-3756 -105 c36 -6 74 -16 85 -21 10 -5 39 -53
64 -106 44 -93 45 -97 33 -141 -14 -55 -52 -153 -57 -148 -2 2 10 43 26 92
l30 89 -22 23 c-12 13 -56 50 -98 81 l-75 58 -60 -22 c-71 -27 -108 -30 -125
-9 -7 8 -16 15 -20 15 -8 0 -70 -174 -70 -197 0 -6 10 -13 23 -15 20 -3 19 -4
-7 -10 l-28 -6 6 46 c3 26 18 84 33 129 l27 82 75 35 c88 41 76 39 160 25z
m3054 -101 c66 -105 167 -342 152 -356 -3 -3 -5 0 -5 6 0 16 -66 53 -84 46 -9
-3 -13 -10 -10 -15 3 -5 3 -9 0 -9 -11 0 -107 210 -101 219 3 5 0 21 -6 35 -9
19 -9 29 0 40 7 9 8 17 2 20 -5 3 -8 14 -7 23 2 9 -1 34 -4 56 -9 48 -5 43 63
-65z m-3058 -104 c4 -17 11 -20 32 -17 23 3 22 1 -7 -9 l-35 -13 -5 65 c-3 36
-3 70 0 75 3 6 6 -10 8 -35 1 -25 4 -55 7 -66z m-64 -19 c5 4 9 13 9 22 0 9 2
14 5 12 2 -3 1 -25 -3 -50 -8 -44 -8 -44 -21 -19 -8 14 -27 41 -42 61 -16 20
-29 43 -29 49 0 7 16 -8 36 -34 19 -25 39 -44 45 -41z m987 40 c17 -64 15 -72
-15 -80 -91 -22 -246 -100 -336 -169 l-45 -34 -42 43 c-51 52 -52 51 56 125
80 55 196 113 284 141 81 26 84 25 98 -26z m-1094 -34 c4 -5 -3 -7 -14 -4 -23
6 -26 13 -6 13 8 0 17 -4 20 -9z m-57 -53 c-3 -7 -5 -2 -5 12 0 14 2 19 5 13
2 -7 2 -19 0 -25z m3178 -28 c6 -23 5 -23 -14 5 -12 17 -21 34 -21 40 0 17 28
-19 35 -45z m-1144 0 c24 -16 55 -39 69 -49 l25 -20 -24 -20 c-13 -12 -20 -21
-15 -21 5 0 2 -5 -6 -10 -8 -5 -16 -19 -16 -31 -2 -24 25 -38 126 -64 118 -31
121 -40 12 -40 -53 0 -146 -2 -207 -4 -60 -1 -145 2 -188 7 -72 9 -180 3 -232
-13 -11 -3 -3 3 17 15 43 23 230 58 361 67 l88 6 -27 28 c-15 16 -45 41 -66
55 -21 15 -38 30 -38 33 0 11 61 91 69 91 4 0 27 -13 52 -30z m-1706 -11 c-9
-17 -19 -29 -22 -26 -5 5 25 57 33 57 3 0 -3 -14 -11 -31z m-216 -15 c16 -14
-17 -14 -66 -1 l-58 15 60 -5 c33 -3 62 -7 64 -9z m92 -21 c13 -17 13 -17 -6
-3 -11 8 -22 16 -24 17 -2 2 0 3 6 3 6 0 17 -8 24 -17z m2903 -39 c3 -8 2 -12
-4 -9 -6 3 -10 10 -10 16 0 14 7 11 14 -7z m-2851 -91 c-7 -2 -19 -2 -25 0 -7
3 -2 5 12 5 14 0 19 -2 13 -5z m-426 -95 c62 -64 177 -215 283 -368 19 -28 50
-71 68 -95 l32 -44 -2 -123 -2 -123 -5 111 -6 110 -65 90 c-249 344 -336 447
-397 463 -20 6 -222 7 -496 4 -652 -8 -969 7 -766 37 30 4 331 8 670 9 l616 1
70 -72z m3274 62 c65 -13 131 -43 176 -83 26 -23 119 -132 160 -186 1 -2 65
60 141 139 l138 142 304 -4 c229 -4 313 -8 335 -19 28 -12 24 -14 -75 -20 -58
-4 -211 -7 -340 -8 l-235 -1 -132 -133 -132 -133 -43 54 c-74 94 -161 168
-224 192 -55 20 -71 21 -343 18 -280 -3 -287 -4 -336 -27 -27 -14 -54 -27 -60
-29 -17 -8 49 59 70 71 46 25 138 35 336 36 114 1 230 -4 260 -9z m-1901 -28
c18 -7 -12 -11 -110 -14 -124 -4 -141 -7 -209 -36 -41 -18 -79 -31 -84 -29
-15 5 122 69 178 84 53 13 183 11 225 -5z m-1535 -289 c-1 -24 -2 -88 -3 -143
l-2 -100 -177 -2 -178 -3 -5 -510 -5 -510 -217 -3 c-124 -1 -218 1 -218 7 0 5
26 30 57 57 32 27 68 59 80 70 l23 21 -2 434 -3 434 -117 5 -116 5 -121 140
c-67 77 -121 142 -121 145 0 3 253 3 562 0 l563 -5 0 -42z m1893 48 c-1 -6
-88 -89 -193 -187 -228 -213 -448 -425 -443 -429 2 -1 23 -15 48 -30 25 -15
104 -87 175 -159 176 -177 495 -508 495 -513 0 -5 -401 2 -422 8 -23 7 -60 41
-188 175 -57 60 -158 165 -225 233 -66 68 -114 121 -107 117 6 -4 12 -5 12 -3
0 3 -19 16 -42 30 -65 39 -180 137 -176 151 3 13 95 99 471 439 l178 162 192
5 c106 3 200 7 210 8 10 1 17 -2 15 -7z m1092 -146 l0 -145 -122 -1 c-68 0
-161 -1 -208 -2 l-85 -2 -3 -512 -2 -513 -140 0 -140 0 0 403 c0 221 -3 453
-7 516 l-6 114 -284 -5 c-155 -3 -283 -3 -282 1 0 3 72 70 160 149 l159 142
480 0 480 0 0 -145z m551 77 c35 -37 104 -114 153 -170 l90 -103 171 171 171
170 199 0 200 0 -100 -102 c-55 -56 -102 -105 -105 -108 -3 -3 -92 -94 -199
-202 l-194 -197 34 -39 c107 -123 426 -472 510 -558 55 -56 99 -104 99 -108 0
-7 -344 -3 -372 5 -9 3 -27 14 -39 25 -19 17 -277 304 -366 407 l-33 37 -102
-107 c-56 -60 -160 -166 -230 -238 l-127 -130 -201 -3 c-126 -3 -200 0 -200 6
0 5 37 45 83 88 45 44 197 197 337 342 139 144 258 262 264 262 6 0 18 5 26
10 12 8 9 16 -21 47 -70 74 -459 546 -459 557 0 4 78 6 174 6 l174 0 63 -68z
m-2518 -114 l5 -123 -131 -128 c-91 -89 -133 -123 -139 -115 -4 7 -8 120 -8
251 l0 237 134 0 134 0 5 -122z m2201 -98 l136 -155 0 -138 0 -137 -137 -145
c-76 -80 -141 -145 -145 -145 -5 0 -8 198 -8 441 0 254 4 439 9 437 5 -1 70
-73 145 -158z m-2919 -42 c49 -90 107 -197 128 -238 208 -400 313 -576 399
-668 37 -39 68 -77 68 -82 0 -7 -63 -10 -182 -8 l-183 3 -79 135 c-43 74 -112
196 -153 270 -41 74 -78 138 -82 142 -7 8 -39 -52 -180 -344 l-99 -208 -60 0
-60 0 -7 64 c-4 35 -5 120 -3 187 l4 124 81 165 c44 91 131 267 192 393 61
125 114 227 119 227 4 0 48 -73 97 -162z m1520 -228 c13 -5 2 -6 -30 -3 -69 7
-128 -11 -178 -55 -34 -30 -37 -32 -20 -9 24 31 59 61 83 70 23 8 122 7 145
-3z m2629 -313 c191 -209 248 -280 141 -177 -100 97 -375 397 -375 411 0 18
21 -3 234 -234z m-3555 63 l131 -125 -2 -175 -3 -175 -100 138 c-55 76 -117
162 -137 190 l-37 52 -1 113 c0 63 4 112 9 110 4 -1 67 -59 140 -128z m1888
-127 c-2 -16 -4 -3 -4 27 0 30 2 43 4 28 2 -16 2 -40 0 -55z m1043 -324 c51
-52 225 -236 269 -284 25 -27 -4 0 -65 60 -60 61 -148 152 -195 202 l-86 93
-139 -141 c-76 -77 -169 -165 -205 -195 l-66 -54 -149 2 -149 2 147 3 146 4
174 163 c95 90 188 180 207 199 l34 36 26 -32 c14 -18 37 -44 51 -58z m-3802
-289 l-22 -30 -535 2 -536 3 531 2 531 3 23 25 c32 34 35 31 8 -5z m1760 -27
c-32 -2 -84 -2 -115 0 -32 2 -6 3 57 3 63 0 89 -1 58 -3z m2874 0 c-95 -2
-248 -2 -340 0 -92 1 -14 3 173 3 187 0 262 -2 167 -3z m-3484 -182 c52 -10
99 -24 107 -32 17 -18 64 -157 71 -211 4 -28 0 -55 -10 -78 -17 -40 -21 -28
-6 16 11 32 -4 119 -33 199 l-15 40 -21 -47 c-24 -57 -40 -60 -116 -24 -47 22
-108 76 -116 103 -2 7 -39 -19 -84 -62 -44 -41 -84 -75 -88 -75 -11 0 38 61
107 133 64 65 63 65 204 38z m-844 -56 c160 -48 256 -178 256 -344 0 -120 -72
-236 -181 -290 -76 -38 -134 -47 -212 -31 -118 23 -190 77 -238 177 -29 61
-31 70 -27 161 3 81 8 107 32 160 24 53 40 71 91 108 34 24 78 50 96 59 44 19
121 19 183 0z m726 -30 c17 -9 30 -20 30 -26 0 -5 14 -16 32 -23 l31 -14 -44
-20 c-24 -12 -64 -33 -89 -47 l-45 -25 -8 57 c-7 56 -6 59 23 86 36 32 33 31
70 12z m2914 -47 c7 -5 4 -8 -6 -8 -17 0 -48 25 -48 39 0 20 15 19 29 -2 8
-12 20 -25 25 -29z m-951 30 c52 -27 277 -201 282 -218 3 -10 -3 -67 -14 -127
-11 -59 -25 -141 -32 -181 -8 -50 -19 -80 -33 -93 -31 -30 -316 -141 -343
-134 -24 6 -268 216 -275 238 -3 6 3 95 14 197 14 141 23 191 36 210 14 18 54
37 153 72 141 49 177 55 212 36z m-1271 -100 l3 -53 108 -3 c86 -2 107 -6 107
-17 0 -12 -19 -15 -105 -15 l-105 0 0 -144 c0 -81 -4 -147 -9 -151 -24 -14
-33 41 -30 164 l4 126 -140 7 c-76 4 -150 10 -163 13 -53 13 -5 18 148 16
l160 -2 0 55 c0 71 18 74 22 4z m-845 0 c34 -38 38 -55 6 -25 -16 15 -32 24
-36 20 -4 -3 -7 1 -7 10 0 23 13 21 37 -5z m3013 -18 c23 -43 -17 -83 -60 -60
-19 10 -28 58 -13 73 15 15 63 6 73 -13z m-2805 0 c-3 -5 -12 -10 -18 -10 -7
0 -6 4 3 10 19 12 23 12 15 0z m-174 -103 c1 -7 5 -1 9 13 6 18 8 7 9 -41 1
-40 6 -70 14 -76 6 -6 40 -15 74 -22 58 -11 65 -10 90 8 16 12 55 26 88 31 84
15 93 19 98 38 4 15 5 15 6 1 0 -9 -5 -21 -11 -26 -29 -23 -180 -73 -220 -73
-51 1 -117 15 -130 28 -8 8 -88 208 -88 221 0 10 60 -90 61 -102z m213 48 c-4
-8 -11 -15 -16 -15 -6 0 -5 6 2 15 7 8 14 15 16 15 2 0 1 -7 -2 -15z m-64 -5
c18 -12 2 -12 -25 0 -13 6 -15 9 -5 9 8 0 22 -4 30 -9z m162 -22 c-7 -7 -12
-8 -12 -2 0 14 12 26 19 19 2 -3 -1 -11 -7 -17z m-1718 -129 l74 -104 -44 -45
c-42 -43 -44 -44 -59 -25 -31 39 -132 191 -148 220 -14 29 -14 31 3 31 10 0
16 -5 12 -11 -3 -5 2 -4 11 4 13 10 17 10 17 1 0 -7 9 -2 21 11 11 13 18 17
14 9 -4 -10 -2 -9 7 2 7 9 14 16 16 14 1 -2 36 -50 76 -107z m1546 79 c0 -12
-6 -9 -26 13 -19 22 -19 22 4 8 12 -8 22 -17 22 -21z m181 14 c-7 -2 -18 1
-23 6 -8 8 -4 9 13 5 13 -4 18 -8 10 -11z m2557 -14 c26 -26 7 -78 -28 -78 -9
0 -25 9 -35 20 -37 41 24 97 63 58z m-98 -138 c11 -11 20 -23 20 -28 0 -18
-33 -52 -50 -52 -17 0 -50 34 -50 52 0 11 38 48 50 48 6 0 19 -9 30 -20z
m-1325 -3 c-36 -22 -87 -76 -80 -87 3 -5 1 -10 -5 -10 -6 0 -9 -4 -6 -9 3 -5
-1 -12 -10 -15 -37 -14 -4 -15 36 -1 24 8 45 14 47 11 7 -6 -91 -44 -183 -71
-174 -51 -252 -60 -495 -60 l-227 0 -11 -49 c-6 -27 -10 -51 -8 -52 14 -15
196 -26 341 -21 187 5 302 24 465 77 52 16 96 28 98 26 7 -7 -162 -64 -249
-85 -172 -41 -464 -51 -616 -22 -46 9 -46 9 -56 -30 -7 -33 -2 -34 150 -51
207 -22 495 13 727 88 116 38 157 41 61 4 -211 -79 -404 -113 -639 -113 -229
0 -396 28 -599 99 -83 29 -92 36 -77 61 9 16 10 16 11 1 0 -21 40 -39 159 -74
90 -26 101 -24 101 23 0 18 -9 24 -42 33 -43 11 -199 62 -207 67 -2 2 -2 5 1
8 3 3 56 -10 117 -30 62 -19 118 -35 125 -35 17 0 48 100 33 106 -7 2 -43 13
-81 24 -80 23 -98 34 -39 24 47 -7 97 2 88 16 -3 5 -1 11 5 15 16 10 12 23
-11 30 -46 15 -6 15 72 1 219 -40 460 -40 657 0 73 14 300 86 332 105 8 4 20
8 25 8 6 0 1 -6 -10 -12z m1599 -79 c-54 -76 -126 -158 -134 -153 -4 2 17 29
47 60 29 31 67 76 83 101 17 24 33 44 36 44 3 0 -11 -24 -32 -52z m-3039 -110
c25 -12 45 -27 45 -32 0 -14 -38 -76 -46 -76 -4 0 -84 43 -102 56 -6 3 40 74
49 74 5 0 29 -10 54 -22z m-475 -144 c0 -33 -33 -30 -38 4 -3 17 2 22 17 22
16 0 21 -6 21 -26z m3142 -9 c61 -70 69 -83 57 -91 -7 -4 -9 -3 -6 3 3 5 -15
30 -41 56 l-47 46 -85 -75 c-435 -387 -843 -592 -1370 -686 -109 -19 -160 -22
-395 -23 -211 0 -294 4 -379 18 -116 19 -261 53 -286 68 -23 13 -11 11 107
-17 400 -95 858 -79 1260 42 384 116 764 336 1043 602 52 50 99 91 103 92 4 0
22 -16 39 -35z m-3029 -37 c7 -21 -4 -38 -24 -38 -14 0 -19 7 -19 25 0 18 5
25 19 25 11 0 21 -6 24 -12z m-83 -131 c161 -101 339 -183 553 -257 43 -15 66
-28 63 -36 -3 -7 -8 -29 -12 -48 -3 -20 -10 -38 -14 -41 -14 -9 -249 83 -398
155 -124 60 -308 173 -392 240 -20 15 -21 20 -8 20 9 0 20 -4 23 -10 3 -5 13
-10 21 -10 8 0 13 4 10 9 -6 9 30 25 48 22 5 -1 3 6 -5 15 -16 21 -25 26 111
-59z m274 26 c4 -9 0 -23 -9 -32 -13 -14 -17 -14 -31 1 -9 9 -14 24 -11 32 8
21 43 20 51 -1z m329 -14 c27 -37 16 -84 -25 -105 -75 -39 -142 61 -81 121 24
25 82 15 106 -16z m-229 -35 c20 -19 20 -19 1 -38 -20 -20 -45 -10 -45 18 0
38 18 46 44 20z m-536 -133 c99 -67 214 -134 355 -206 53 -27 97 -54 97 -60 0
-5 -12 -40 -26 -77 l-25 -67 -67 30 c-203 90 -528 280 -539 315 -5 14 88 124
104 124 7 0 52 -26 101 -59z m1532 19 l0 -30 -61 0 c-52 0 -60 2 -55 16 3 9 6
20 6 24 0 5 24 11 53 13 28 2 53 4 55 5 1 1 2 -11 2 -28z m-142 -7 c3 -22 0
-23 -52 -23 -52 0 -56 2 -56 23 0 21 4 23 53 23 46 -1 52 -4 55 -23z m-805
-319 c26 -9 47 -22 47 -30 0 -10 -8 -9 -32 6 -37 22 -68 26 -68 8 0 -6 -2 -9
-5 -6 -5 4 4 38 9 38 1 0 23 -7 49 -16z m-72 -61 c-12 -20 -14 -14 -5 12 4 9
9 14 11 11 3 -2 0 -13 -6 -23z m106 -15 c-3 -8 -6 -5 -6 6 -1 11 2 17 5 13 3
-3 4 -12 1 -19z"/>
<path d="M4246 5439 c-58 -46 -19 -129 61 -129 46 0 73 23 73 62 0 40 -10 57
-41 73 -38 20 -62 19 -93 -6z"/>
<path d="M1824 5356 c-3 -13 -4 -67 -2 -120 l3 -96 -30 -6 c-20 -3 -55 4 -105
24 -41 16 -139 53 -218 82 -188 70 -187 70 -197 -72 -4 -57 -5 -132 -3 -168
l3 -65 19 80 c10 44 18 91 18 104 0 18 3 20 9 10 10 -18 -27 -213 -41 -217 -5
-2 -10 -19 -10 -38 0 -40 7 -41 105 -19 101 24 101 12 1 -15 -47 -12 -89 -27
-93 -33 -10 -16 28 -44 147 -107 144 -77 241 -118 259 -112 27 9 316 283 330
313 l15 30 -80 82 c-111 112 -124 132 -124 180 0 47 12 40 28 -18 7 -26 30
-58 62 -90 l50 -50 -25 65 c-14 36 -30 83 -36 105 -12 46 -35 85 -49 85 -6 0
-10 -6 -10 -14 0 -8 -4 -18 -10 -21 -6 -4 -7 19 -3 60 6 64 -1 87 -13 41z
m-452 -169 c57 -112 81 -164 69 -152 -17 18 -135 249 -122 241 6 -4 30 -44 53
-89z m178 -2 c69 -26 128 -50 132 -54 4 -3 -2 -17 -13 -30 -11 -13 -22 -21
-26 -17 -4 3 -1 12 5 18 17 17 15 23 -13 36 -28 13 -45 -2 -19 -16 23 -13 11
-57 -22 -79 -24 -15 -28 -15 -72 7 -44 21 -45 23 -24 31 14 5 22 17 22 33 0
21 6 25 42 31 l42 7 -40 14 c-35 12 -40 12 -52 -4 -7 -9 -16 -29 -19 -44 -3
-16 -10 -28 -15 -28 -16 0 -20 30 -7 47 12 14 12 17 -1 21 -8 3 -37 27 -65 54
-50 49 -50 49 -15 34 19 -8 91 -36 160 -61z m354 -27 c-9 -14 -22 15 -23 47 0
16 2 15 15 -8 8 -15 12 -33 8 -39z m-185 -104 c-7 -9 -47 -44 -89 -77 -101
-81 -105 -85 -97 -70 9 14 185 163 194 163 3 0 -1 -7 -8 -16z m111 -74 c31
-31 21 -91 -14 -90 -6 0 -3 7 7 14 20 15 15 57 -7 76 -21 17 -49 -24 -50 -73
-1 -35 -5 -43 -22 -45 -11 -2 -27 5 -35 14 -13 16 -12 16 9 3 20 -12 24 -12
32 1 14 22 12 50 -4 56 -11 4 -6 13 16 35 37 34 42 35 68 9z m-450 -70 c0 -5
-7 -10 -15 -10 -8 0 -15 5 -15 10 0 6 7 10 15 10 8 0 15 -4 15 -10z m518 -41
c-64 -33 -98 -57 -98 -67 0 -13 -2 -14 -9 -4 -7 11 -16 10 -51 -8 -23 -12 -44
-20 -45 -18 -6 6 268 146 285 147 8 0 -29 -22 -82 -50z m-392 -85 c10 -8 13
-12 5 -8 -8 4 -28 11 -45 15 -29 6 -29 7 -5 8 14 1 34 -6 45 -15z m-39 -60
c13 -4 30 0 40 7 14 12 16 12 11 -1 -11 -36 -99 -11 -97 28 0 13 3 12 11 -6 6
-12 22 -25 35 -28z"/>
<path d="M1554 5114 c3 -9 6 -26 6 -40 0 -16 4 -22 14 -18 21 8 28 32 16 55
-13 23 -45 26 -36 3z"/>
<path d="M1525 5070 c3 -5 11 -10 16 -10 6 0 7 5 4 10 -3 6 -11 10 -16 10 -6
0 -7 -4 -4 -10z"/>
<path d="M1612 5300 c0 -14 2 -19 5 -12 2 6 2 18 0 25 -3 6 -5 1 -5 -13z"/>
<path d="M1568 5263 c7 -3 16 -2 19 1 4 3 -2 6 -13 5 -11 0 -14 -3 -6 -6z"/>
<path d="M4550 4951 c0 -15 -4 -20 -12 -16 -7 4 -4 -1 6 -9 11 -9 43 -25 70
-35 28 -11 68 -27 89 -35 20 -9 37 -15 37 -12 0 2 -26 25 -57 52 -32 26 -50
39 -40 28 42 -50 8 -45 -48 7 -40 37 -45 39 -45 20z"/>
<path d="M4425 4930 c3 -5 8 -10 11 -10 2 0 4 5 4 10 0 6 -5 10 -11 10 -5 0
-7 -4 -4 -10z"/>
<path d="M4425 4870 c-13 -6 -15 -9 -5 -9 8 0 22 4 30 9 18 12 2 12 -25 0z"/>
<path d="M4561 4783 c-12 -101 -45 -246 -62 -273 -8 -12 -9 -11 -5 5 10 38 66
329 66 342 0 20 -44 15 -159 -17 -110 -31 -149 -34 -61 -5 28 9 49 19 46 22
-2 3 -50 -11 -106 -31 -99 -34 -142 -60 -245 -150 l-39 -35 16 -48 c9 -26 26
-91 39 -143 25 -111 34 -131 41 -103 3 11 -1 37 -8 58 -7 21 -16 57 -19 79 -7
40 -6 40 12 23 12 -12 21 -43 28 -95 9 -67 13 -78 35 -89 l25 -13 -25 0 -25 0
23 -18 c13 -10 64 -39 113 -66 71 -38 95 -46 111 -39 12 5 46 42 77 83 50 66
65 78 141 116 47 24 90 43 95 43 6 0 -32 -21 -83 -47 -84 -43 -97 -54 -137
-112 -25 -35 -44 -64 -42 -66 3 -2 150 28 156 33 3 2 -8 17 -24 33 -36 38 -23
38 34 1 33 -22 49 -27 62 -21 23 13 66 70 118 158 l44 73 -8 146 c-4 80 -9
152 -12 159 -6 17 -168 94 -198 94 -8 0 -16 -34 -24 -97z m-323 4 c-16 -6 -28
-15 -28 -20 0 -6 20 -33 44 -61 64 -75 176 -228 176 -240 0 -12 6 -20 -120
139 -57 72 -110 138 -118 147 -14 16 -12 19 19 32 19 9 39 15 44 15 6 -1 -2
-6 -17 -12z m458 -57 c17 -36 34 -76 38 -90 3 -14 -11 10 -31 53 -20 42 -42
77 -49 77 -7 0 -24 -36 -39 -81 -26 -77 -26 -81 -9 -100 9 -10 23 -19 29 -19
7 0 18 -7 25 -15 12 -15 50 -21 50 -8 0 3 -11 20 -23 37 -13 17 -30 42 -37 56
l-13 25 23 -20 c12 -11 33 -41 46 -68 20 -39 22 -48 10 -53 -15 -6 -61 15
-108 48 -35 24 -35 41 -1 145 19 59 32 83 42 81 8 -2 29 -32 47 -68z m-239 43
c2 -6 -5 -14 -16 -18 -19 -6 -21 -14 -21 -91 0 -46 -4 -84 -9 -84 -4 0 -11 30
-14 68 -11 108 -9 130 11 135 26 7 45 3 49 -10z m-307 -197 c-7 -72 -16 -138
-22 -146 -6 -10 -8 -3 -4 25 3 22 8 90 11 150 7 115 14 156 23 121 2 -11 -1
-78 -8 -150z m610 124 c0 -11 -2 -20 -4 -20 -2 0 -6 9 -9 20 -3 11 -1 20 4 20
5 0 9 -9 9 -20z m-702 -91 c-19 -13 -28 -11 -28 5 0 9 7 12 21 9 16 -4 17 -8
7 -14z m192 -40 c42 -54 44 -69 5 -69 -23 0 -71 47 -60 58 3 3 12 -4 21 -16
14 -21 44 -31 44 -14 -1 4 -14 23 -30 42 -28 32 -37 50 -25 50 2 0 23 -23 45
-51z m-150 7 c0 -29 -17 -43 -33 -27 -8 8 -6 11 7 11 13 0 16 5 11 20 -4 11
-2 20 4 20 6 0 11 -11 11 -24z m574 -211 c-7 -16 -24 -21 -24 -6 0 8 7 13 27
20 1 1 0 -6 -3 -14z m-24 -32 c0 -5 -4 -14 -9 -21 -6 -10 -10 -9 -14 7 -3 14
0 21 9 21 8 0 14 -3 14 -7z m-433 -9 c-3 -3 -12 -4 -19 -1 -8 3 -5 6 6 6 11 1
17 -2 13 -5z m397 -20 c3 -8 2 -12 -4 -9 -6 3 -10 10 -10 16 0 14 7 11 14 -7z
m-304 -24 c14 -11 22 -20 18 -20 -14 0 -58 23 -58 32 0 13 13 9 40 -12z m-24
-26 c18 -14 18 -14 -6 -3 -31 14 -36 19 -24 19 6 0 19 -7 30 -16z"/>
<path d="M4146 4853 c-6 -14 -5 -15 5 -6 7 7 10 15 7 18 -3 3 -9 -2 -12 -12z"/>
<path d="M4086 4815 c-9 -13 -16 -27 -16 -31 0 -3 -9 -19 -21 -35 -11 -16 -17
-29 -14 -29 15 0 85 62 85 75 0 7 6 15 12 17 8 3 5 9 -9 16 -18 10 -23 8 -37
-13z"/>
<path d="M2077 4467 l-28 -12 32 -30 c33 -30 33 -30 16 -3 -9 15 -13 29 -8 33
12 7 38 -19 46 -46 4 -11 9 -18 12 -16 4 5 -34 88 -40 87 -1 -1 -15 -6 -30
-13z"/>
<path d="M2150 4365 c7 -9 15 -13 17 -11 7 7 -7 26 -19 26 -6 0 -6 -6 2 -15z"/>
<path d="M2521 2937 c2 -2 27 -23 54 -47 l50 -44 -45 47 c-24 26 -48 47 -54
47 -5 0 -7 -1 -5 -3z"/>
<path d="M2650 2815 c13 -14 26 -25 28 -25 3 0 -5 11 -18 25 -13 14 -26 25
-28 25 -3 0 5 -11 18 -25z"/>
<path d="M5015 2718 l-50 -53 53 50 c48 46 57 55 49 55 -1 0 -25 -24 -52 -52z"/>
<path d="M2532 1965 c3 -3 29 -8 58 -11 36 -4 50 -2 46 5 -4 6 -30 11 -58 11
-28 0 -49 -2 -46 -5z"/>
<path d="M2706 1935 c4 -8 8 -15 10 -15 2 0 4 7 4 15 0 8 -4 15 -10 15 -5 0
-7 -7 -4 -15z"/>
<path d="M2660 1921 c0 -5 5 -13 10 -16 6 -3 10 -2 10 4 0 5 -4 13 -10 16 -5
3 -10 2 -10 -4z"/>
<path d="M1625 1894 l-30 -25 34 13 c19 8 36 19 39 26 6 19 -10 14 -43 -14z"/>
<path d="M1565 1870 c-3 -6 1 -7 9 -4 18 7 21 14 7 14 -6 0 -13 -4 -16 -10z"/>
<path d="M1591 1851 c-17 -4 -36 -27 -60 -72 -37 -66 -71 -118 -71 -107 0 3
20 41 45 84 48 85 45 99 -13 68 -50 -27 -83 -105 -90 -208 -4 -74 -3 -83 27
-141 18 -34 44 -76 59 -93 23 -27 34 -32 77 -32 28 -1 72 4 98 10 51 13 97 7
97 -12 0 -7 -18 -9 -55 -5 -30 3 -57 2 -60 -3 -9 -15 78 -22 125 -9 25 6 59
12 75 13 48 3 95 17 95 27 0 6 17 33 38 62 54 74 80 156 45 143 -16 -6 -16 -6
0 12 15 17 16 26 6 73 -13 62 -39 116 -65 141 -19 17 -74 41 -74 33 0 -16 38
-97 62 -134 16 -24 27 -45 25 -47 -9 -9 -52 51 -86 118 -26 53 -43 74 -61 79
-33 9 -208 9 -239 0z m250 -32 c25 -25 21 -50 -11 -66 -13 -6 -32 -28 -42 -48
-11 -20 -23 -33 -28 -30 -5 3 -11 1 -15 -5 -16 -26 -111 0 -121 33 -4 12 -6
37 -6 55 1 26 -3 32 -18 32 -25 0 -27 37 -2 43 9 3 63 5 120 6 91 1 104 -1
123 -20z m119 -44 c11 -13 10 -14 -4 -9 -9 3 -16 10 -16 15 0 13 6 11 20 -6z
m15 -45 c3 -5 1 -10 -4 -10 -6 0 -11 5 -11 10 0 6 2 10 4 10 3 0 8 -4 11 -10z
m-75 -52 c0 -14 -117 -74 -126 -66 -5 6 104 78 118 78 4 0 8 -6 8 -12z m-285
-34 l39 -35 -59 26 c-75 33 -88 45 -49 45 19 -1 43 -13 69 -36z m-175 -112 c0
-15 -2 -15 -10 -2 -13 20 -13 33 0 25 6 -3 10 -14 10 -23z m440 12 c16 -10 18
-13 5 -8 -11 4 -30 7 -42 7 -13 -1 -20 3 -17 8 8 13 25 11 54 -7z m-163 -16
c-3 -8 -6 -5 -6 6 -1 11 2 17 5 13 3 -3 4 -12 1 -19z m170 -21 c9 3 9 -2 0
-21 -15 -32 -38 -33 -63 -3 -19 22 -19 22 2 5 38 -32 58 -20 27 15 -17 19 -17
20 2 10 11 -6 25 -8 32 -6z m77 -29 c-32 -55 -68 -88 -95 -88 -35 0 -69 16
-69 32 0 9 3 9 12 0 7 -7 28 -12 48 -12 28 0 41 8 69 40 35 40 48 51 35 28z
m-404 -8 c0 -5 -2 -10 -4 -10 -3 0 -8 5 -11 10 -3 6 -1 10 4 10 6 0 11 -4 11
-10z m10 -36 c0 -2 -7 -4 -15 -4 -8 0 -15 4 -15 10 0 5 7 7 15 4 8 -4 15 -8
15 -10z m62 -26 c-6 -6 -39 -14 -72 -16 -53 -4 -60 -2 -60 14 0 14 3 15 12 6
16 -16 67 -15 98 1 28 15 40 13 22 -5z"/>
<path d="M1647 1803 c-3 -5 16 -7 41 -5 80 5 90 9 25 11 -34 0 -64 -2 -66 -6z"/>
<path d="M1740 1771 c0 -5 7 -15 17 -22 15 -13 15 -12 4 9 -12 23 -21 28 -21
13z"/>
<path d="M1710 1751 c0 -13 -9 -25 -22 -30 -29 -10 -6 -25 28 -17 27 7 32 37
9 56 -13 10 -15 9 -15 -9z"/>
<path d="M2458 1879 c-12 -6 -18 -22 -18 -45 0 -32 2 -34 28 -28 50 12 68 44
40 72 -14 14 -27 15 -50 1z m46 -18 c3 -5 -5 -12 -18 -15 -14 -3 -27 -14 -29
-24 -3 -11 -5 -8 -6 9 0 14 2 29 6 32 9 10 41 9 47 -2z"/>
<path d="M4435 1751 c-8 -13 33 -34 52 -27 12 5 13 9 3 21 -14 17 -46 20 -55
6z"/>
<path d="M4115 1728 c-4 -21 -16 -132 -31 -293 l-6 -60 127 -113 c69 -61 132
-112 139 -112 25 0 311 113 329 130 13 12 26 64 47 181 32 176 35 209 21 209
-5 0 -83 -29 -173 -64 -90 -35 -172 -67 -183 -70 -15 -4 -48 20 -142 104 -111
100 -123 108 -128 88z m71 -79 c4 -8 -1 -9 -17 -5 -21 6 -19 3 10 -21 83 -68
120 -106 130 -133 5 -16 6 -32 2 -34 -5 -3 -39 3 -77 14 -38 11 -70 20 -72 20
-2 0 -1 4 3 10 3 5 13 6 21 3 10 -4 17 2 21 16 3 11 9 19 13 16 5 -3 6 -13 3
-24 -4 -15 3 -20 32 -25 20 -4 40 -5 43 -2 10 11 -91 97 -121 103 -33 7 -57
51 -35 65 18 11 36 10 44 -3z m445 -185 c-16 -33 -30 -56 -31 -53 0 12 52 120
57 116 2 -3 -9 -31 -26 -63z m-70 -25 l-9 -34 -1 30 c0 17 2 41 6 55 7 23 8
24 11 4 2 -12 -1 -37 -7 -55z m-298 -15 c38 -38 54 -72 43 -99 -14 -37 -63
-28 -126 25 -51 42 -32 45 25 5 53 -38 80 -44 89 -19 8 21 -6 45 -49 82 -19
17 -35 34 -35 37 0 13 19 2 53 -31z m295 -94 c-3 -10 -98 100 -98 114 0 2 23
-19 51 -49 28 -30 49 -59 47 -65z m33 43 c-12 -20 -14 -14 -5 12 4 9 9 14 11
11 3 -2 0 -13 -6 -23z m-81 -92 c8 -16 4 -24 -21 -45 -33 -28 -72 -42 -88 -31
-23 14 -11 53 22 74 40 26 73 27 87 2z"/>
<path d="M4450 1273 c-23 -9 -50 -35 -45 -44 6 -8 62 8 83 24 27 21 3 35 -38
20z"/>
<path d="M4313 1710 c4 -15 0 -20 -15 -20 -11 0 -18 -5 -15 -12 2 -7 16 -12
31 -11 16 1 26 -3 26 -12 0 -8 9 -19 21 -25 22 -12 69 -6 69 9 0 5 -9 7 -19 4
-29 -7 -58 13 -64 45 -3 16 -14 32 -23 36 -13 5 -15 2 -11 -14z"/>
<path d="M4537 1705 c-4 -8 -18 -15 -32 -15 -25 0 -33 -14 -15 -25 17 -10 49
5 55 26 8 24 0 37 -8 14z"/>
<path d="M2346 1294 c-8 -31 -3 -40 36 -60 30 -15 32 -15 45 2 21 29 16 39
-31 61 l-44 22 -6 -25z"/>
</g>
</svg>
